<?xml version="1.0" encoding="utf-8"?>
<!-- Generated by IcoMoon.io -->
<svg version="1.1" xmlns="http://www.w3.org/2000/svg" xmlns:xlink="http://www.w3.org/1999/xlink" width="224" height="32" viewBox="0 0 224 32">
<svg id="icon-gmail" width="32" height="32" viewBox="0 0 32 32" x="0" y="0">
<path fill="#d14836" d="M32 6v20c0 1.134-0.866 2-2 2h-2v-18.15l-12 8.616-12-8.616v18.15h-2c-1.134 0-2-0.866-2-2v-20c0-0.566 0.216-1.066 0.574-1.424 0.36-0.362 0.862-0.576 1.426-0.576h0.666l13.334 9.666 13.334-9.666h0.666c0.566 0 1.066 0.216 1.426 0.576 0.358 0.358 0.574 0.858 0.574 1.424z"></path>
</svg>
<svg id="icon-spotlight" width="32" height="32" viewBox="0 0 32 32" x="48" y="0">
<path fill="#352a71" d="M31.446 13.768l-0.846-1.64c-0.254-0.474-0.426-0.99-0.508-1.52l-0.284-1.81c-0.24-1.58-1.232-2.96-2.654-3.68l-1.64-0.82c-0.474-0.26-0.912-0.56-1.3-0.94l-1.296-1.34c-1.14-1.12-2.74-1.66-4.34-1.4l-1.8 0.3c-0.54 0.080-1.080 0.080-1.62 0l-1.8-0.3c-1.558-0.218-3.158 0.302-4.278 1.422l-1.3 1.3c-0.374 0.392-0.814 0.708-1.3 0.932l-1.64 0.82c-1.44 0.708-2.434 2.088-2.66 3.672l-0.28 1.806c-0.086 0.534-0.26 1.050-0.51 1.526l-0.86 1.64c-0.74 1.41-0.74 3.1 0 4.512l0.844 1.64c0.248 0.476 0.42 0.99 0.504 1.524l0.28 1.806c0.24 1.58 1.22 2.94 2.66 3.66l1.64 0.82c0.48 0.24 0.9 0.54 1.3 0.92l1.3 1.3c1.12 1.12 2.74 1.66 4.32 1.4l1.8-0.32c0.52-0.080 1.060-0.080 1.6 0l1.8 0.3c1.58 0.26 3.2-0.28 4.32-1.42l1.3-1.3c0.36-0.4 0.8-0.72 1.3-0.94l1.64-0.82c1.42-0.72 2.42-2.1 2.64-3.68l0.28-1.82c0.080-0.54 0.24-1.060 0.5-1.52l0.84-1.64c0.7-1.42 0.7-3.080-0.040-4.5zM17.558 14.738c0.040 0.2 0.060 0.4 0.060 0.6 0.040 0.42 0.040 0.96 0.040 1.34-0.84 0.266-1.54 0.834-1.98 1.594-0.5 0.786-0.82 1.664-0.96 2.58-0.22 1.328-0.44 3.336 0.18 4.552 0.18 0.336 0.52 0.764 0.94 0.82 0.32 0.064 0.62-0.106 0.74-0.396 0.060-0.192 0.060-0.392 0.060-0.592v-1.752c-0.28 0-0.92 0.056-1.26 0.056 0.020-0.454 0-0.934 0.040-1.354 0.78-0.114 1.54-0.198 2.36-0.286v5.228c-0.5 0.256-1.020 0.436-1.56 0.536-1.56 0.226-2.3-0.65-2.7-1.694-0.1-0.292-0.2-0.596-0.24-0.904-0.14-0.982-0.16-1.978-0.040-2.966 0.1-1.27 0.38-2.52 0.86-3.7 0.1-0.276 0.24-0.542 0.4-0.79 0.416-0.75 0.976-1.41 1.636-1.95 0.474-0.346 0.974-0.648 1.5-0.9h0.026zM22.902 25.518c-0.58-1.62-1.16-3.2-1.48-5-0.46 0.2-0.88 0.4-1.3 0.6 0.040 1.38 0 2.72-0.040 4.3 0 0.42-0.040 0.8-0.040 1.28-0.24 0.14-0.5 0.28-0.76 0.4-0.24 0.1-0.5 0.28-0.76 0.4 0-1.22 0-2.6 0.080-3.86 0.060-0.64 0.020-1.32 0.080-2 0.020-0.32 0.020-0.66 0.020-0.96 0-1.1-0.080-2.2-0.2-3.28-0.040-0.68-0.16-1.38-0.28-2.12 0.48-0.18 0.94-0.4 1.44-0.56 0.1 1.6 0.2 3 0.34 4.56 0.38-0.14 0.74-0.34 1.1-0.5-0.040-1.32-0.12-2.92-0.12-4.42-0.020-0.1-0.020-0.2 0-0.28 0.040-0.060 0.1-0.12 0.16-0.14 0.42-0.32 0.9-0.66 1.3-0.96-0.060 1.048-0.080 2.062-0.060 3.108 0.040 0.76 0.060 1.524 0.14 2.26 0.138 1.184 0.374 2.354 0.706 3.5 0.254 0.876 0.508 1.75 0.82 2.57-0.354 0.444-0.762 0.844-1.214 1.184zM10.886 26.76c-1.496-0.734-2.88-1.61-3.954-2.796 0.92-1.52 1.72-3.106 2.4-4.744 0.76-1.766 1.274-3.63 1.526-5.536 0.58-0.2 1.2-0.34 1.78-0.536 0.040 0.028 0 0.112 0 0.17-0.1 0.42-0.2 0.8-0.32 1.24-0.34 1.34-0.8 2.7-1.24 4-0.62 1.74-1.34 3.42-2.060 5.020 0.82 0.68 1.7 1.28 2.66 1.78-0.24 0.48-0.5 0.94-0.8 1.38zM11.452 24.080c-0.396-0.2-0.734-0.426-1.1-0.624 1.068-2.966 2.168-5.93 2.988-9.096 0.424 0.228 0.876 0.426 1.27 0.68-0.2 0.82-0.452 1.61-0.68 2.372-0.224 0.76-0.48 1.526-0.732 2.288-0.6 1.496-1.020 2.994-1.76 4.374v0.004zM26.758 12.98c-0.26 0.112-0.48 0.28-0.74 0.394-0.2-0.656-0.52-1.276-0.9-1.836-0.52 1.72-0.44 3.7-0.26 5.52 0.040 0.46 0.12 0.9 0.22 1.34 0.24 1.2 0.66 2.38 1.24 3.46-0.38 0.5-0.76 0.96-1.16 1.46-0.1-0.12-0.18-0.26-0.22-0.4-0.2-0.42-0.38-0.84-0.54-1.28-0.22-0.58-0.4-1.18-0.54-1.78-0.34-1.28-0.56-2.58-0.68-3.9-0.080-1.32-0.020-2.64 0.2-3.96 0.1-0.68 0.24-1.3 0.42-1.96 0.040-0.12 0.080-0.24 0.1-0.36-0.060-0.12-0.12-0.2-0.2-0.3-0.36-0.46-0.7-0.82-1.1-1.24-0.080-0.080-0.16-0.16-0.26-0.22-0.080-0.080-0.16-0.14-0.24-0.22 0.040-0.12 0.1-0.22 0.18-0.32 0.2-0.32 0.44-0.62 0.68-0.9h0.020c0.98 0.56 1.9 1.6 2.62 2.6 0.76 1.040 1.36 2.2 1.78 3.44-0.24 0.1-0.46 0.22-0.72 0.36zM6.258 21.638c-0.16 0.22-0.34 0.42-0.54 0.62-0.060 0.060-0.12 0.12-0.2 0.14-0.040-0.060-0.080-0.14-0.1-0.22-0.22-0.44-0.42-0.88-0.64-1.32-0.020-0.080-0.1-0.18-0.1-0.2 0.080-0.1 0.16-0.2 0.26-0.28 0.62-0.66 1.020-1.52 1.1-2.42 0.020-0.56-0.060-1.14-0.26-1.66-0.16-0.5-0.36-0.98-0.58-1.44-0.34-0.7-0.7-1.32-0.7-2.28 0-1.58 0.78-2.626 1.88-3.19 0.2 0.592 0.34 1.216 0.54 1.836-0.5 0.364-0.64 1.072-0.56 1.864 0.1 0.576 0.26 1.138 0.52 1.668 0.26 0.516 0.44 1.054 0.58 1.61 0.36 1.844-0.040 3.758-1.1 5.308zM8.48 6.48c0.214-0.16 0.452-0.296 0.704-0.392 0.51-0.246 1.094-0.296 1.64-0.14 0.314 0.14 0.586 0.366 0.788 0.648 0.62 0.79 0.76 2.2 0.42 3.416-0.34 1.396-1.328 2.55-2.652 3.108 0.084 1.186 0.2 2.57 0.31 3.868-0.312 0.17-0.62 0.368-0.96 0.566-0.1 0.066-0.2 0.124-0.312 0.168-0.38-3.38-0.76-6.88-1.14-10.18 0.34-0.38 0.74-0.74 1.18-1.040zM13.986 5.832c0.654-0.724 1.526-1.22 2.484-1.412 0.166-0.034 0.336-0.052 0.506-0.056 0.66-0.048 1.316 0.060 1.92 0.312 1.612 0.608 2.714 2.12 2.8 3.84l0.006 0.254c0 2.434-2 4.44-4.44 4.44-0.24 0-0.48-0.020-0.72-0.060-0.84-0.146-1.62-0.528-2.26-1.104-0.86-0.754-1.38-1.824-1.44-2.966-0.060-1.192 0.36-2.36 1.16-3.248zM15.34 10.86c0.54 0.508 1.264 0.78 2.006 0.76 0.716 0 1.4-0.296 1.892-0.82 0.52-0.468 0.82-1.132 0.84-1.834v-0.396c-0.040-0.734-0.36-1.426-0.9-1.92-0.58-0.526-1.34-0.794-2.1-0.736-0.68 0.030-1.34 0.324-1.8 0.82-0.64 0.592-0.96 1.454-0.86 2.316 0.040 0.7 0.36 1.354 0.88 1.81zM9.080 9.42c0.084 0.734 0.112 1.554 0.196 2.174 0.82-0.34 1.3-1.016 1.384-2.060 0.028-0.32 0.028-0.64 0-0.96-0.056-0.594-0.168-1.132-0.79-1.1-0.2 0.020-0.394 0.088-0.564 0.194-0.152 0.064-0.28 0.172-0.368 0.312-0.020 0.104 0 0.208 0.020 0.31 0.020 0.424 0.080 0.816 0.1 1.13z"></path>
</svg>
<svg id="icon-instagram" width="32" height="32" viewBox="0 0 32 32" x="96" y="0">
<path fill="#e4405f" d="M16 0c-4.346 0-4.89 0.020-6.596 0.096-1.704 0.080-2.864 0.348-3.884 0.744-1.052 0.408-1.946 0.956-2.834 1.846-0.89 0.888-1.44 1.78-1.846 2.834-0.396 1.020-0.666 2.18-0.744 3.884-0.080 1.706-0.096 2.25-0.096 6.596s0.020 4.89 0.096 6.596c0.080 1.704 0.348 2.866 0.744 3.884 0.408 1.052 0.956 1.946 1.846 2.834 0.888 0.89 1.78 1.44 2.834 1.846 1.020 0.396 2.18 0.666 3.884 0.744 1.706 0.080 2.25 0.096 6.596 0.096s4.89-0.020 6.596-0.096c1.704-0.080 2.866-0.348 3.884-0.744 1.052-0.408 1.946-0.956 2.834-1.846 0.89-0.888 1.44-1.78 1.846-2.834 0.396-1.020 0.666-2.18 0.744-3.884 0.080-1.706 0.096-2.25 0.096-6.596s-0.020-4.89-0.096-6.596c-0.080-1.704-0.348-2.866-0.744-3.884-0.408-1.052-0.956-1.946-1.846-2.834-0.888-0.89-1.78-1.44-2.834-1.846-1.020-0.396-2.18-0.666-3.884-0.744-1.706-0.080-2.25-0.096-6.596-0.096zM16 2.88c4.272 0 4.78 0.020 6.466 0.096 1.56 0.072 2.406 0.332 2.97 0.552 0.748 0.29 1.28 0.636 1.84 1.196s0.906 1.092 1.196 1.84c0.22 0.564 0.48 1.41 0.552 2.97 0.076 1.688 0.094 2.194 0.094 6.466s-0.020 4.78-0.1 6.466c-0.080 1.56-0.34 2.406-0.56 2.97-0.3 0.748-0.64 1.28-1.2 1.84s-1.1 0.906-1.84 1.196c-0.56 0.22-1.42 0.48-2.98 0.552-1.7 0.076-2.2 0.094-6.48 0.094s-4.78-0.020-6.48-0.1c-1.56-0.080-2.42-0.34-2.98-0.56-0.76-0.3-1.28-0.64-1.84-1.2s-0.92-1.1-1.2-1.84c-0.22-0.56-0.48-1.42-0.56-2.98-0.060-1.68-0.080-2.2-0.080-6.46s0.020-4.78 0.080-6.48c0.080-1.56 0.34-2.42 0.56-2.98 0.28-0.76 0.64-1.28 1.2-1.84s1.080-0.92 1.84-1.2c0.56-0.22 1.4-0.48 2.96-0.56 1.7-0.060 2.2-0.080 6.48-0.080zM16 7.784c-4.54 0-8.216 3.68-8.216 8.216 0 4.54 3.68 8.216 8.216 8.216 4.54 0 8.216-3.68 8.216-8.216 0-4.54-3.68-8.216-8.216-8.216zM16 21.334c-2.946 0-5.334-2.388-5.334-5.334s2.388-5.334 5.334-5.334c2.946 0 5.334 2.388 5.334 5.334s-2.388 5.334-5.334 5.334zM26.46 7.46c0 1.060-0.86 1.92-1.92 1.92s-1.92-0.86-1.92-1.92 0.86-1.92 1.92-1.92 1.92 0.86 1.92 1.92z"></path>
</svg>
<svg id="icon-twitter" width="32" height="32" viewBox="0 0 32 32" x="144" y="0">
<path fill="#1da1f2" d="M32 6.076c-1.18 0.52-2.44 0.874-3.77 1.034 1.354-0.814 2.396-2.1 2.886-3.632-1.268 0.74-2.674 1.28-4.17 1.58-1.196-1.28-2.9-2.080-4.792-2.080-3.624 0-6.564 2.94-6.564 6.56 0 0.52 0.060 1.020 0.17 1.5-5.456-0.26-10.294-2.88-13.532-6.84-0.568 0.962-0.888 2.082-0.888 3.302 0 2.28 1.16 4.286 2.92 5.464-1.076-0.034-2.090-0.33-2.974-0.82v0.080c0 3.18 2.26 5.836 5.266 6.44-0.552 0.148-1.132 0.228-1.73 0.228-0.42 0-0.82-0.040-1.22-0.116 0.84 2.608 3.26 4.506 6.14 4.56-2.24 1.76-5.080 2.808-8.14 2.808-0.52 0-1.040-0.030-1.56-0.090 2.92 1.86 6.36 2.948 10.080 2.948 12.080 0 18.68-10 18.68-18.66 0-0.28 0-0.56-0.020-0.84 1.28-0.92 2.4-2.080 3.28-3.4z"></path>
</svg>
<svg id="icon-imdb" width="32" height="32" viewBox="0 0 32 32" x="192" y="0">
<path fill="#e6b91e" d="M29.838 0h0.050c1.184 0.092 2.112 1.092 2.112 2.28v27.44c0 1.174-0.914 2.176-2.074 2.28h-27.792c-0.020 0-0.040 0-0.060-0.004-1.124-0.1-1.994-0.99-2.074-2.156v-27.712c0.080-1.136 0.99-2.048 2.16-2.128h27.68zM3.85 11.014v9.82h2.54v-9.82h-2.54zM19.050 20.834c0.604 0 1.066-0.040 1.364-0.1 0.308-0.064 0.56-0.18 0.76-0.354 0.208-0.16 0.352-0.4 0.434-0.696 0.080-0.3 0.136-0.886 0.136-1.76v-3.45c0-0.93-0.036-1.556-0.1-1.87-0.054-0.32-0.19-0.606-0.416-0.86-0.226-0.26-0.56-0.44-0.994-0.56-0.426-0.108-1.14-0.172-2.36-0.172h-1.9v9.82h3.074zM25.902 18.454c0 0.47-0.020 0.77-0.060 0.896s-0.24 0.19-0.4 0.19c-0.14 0-0.24-0.064-0.3-0.18-0.040-0.12-0.080-0.4-0.080-0.832v-2.596c0-0.444 0.040-0.724 0.080-0.832s0.14-0.16 0.3-0.16c0.16 0 0.36 0.052 0.42 0.188 0.060 0.126 0.080 0.4 0.080 0.804v2.52zM19.080 12.786c0.1 0.054 0.16 0.144 0.188 0.272 0.040 0.12 0.046 0.4 0.046 0.84v3.82c0 0.64-0.046 1.040-0.126 1.18s-0.308 0.22-0.67 0.22v-6.418c0.26 0 0.46 0.028 0.56 0.092zM11.8 11.014l-0.588 4.592-0.36-2.494c-0.11-0.806-0.21-1.5-0.308-2.1h-3.292v9.82h2.224l0.010-6.48 0.93 6.48h1.584l0.894-6.628v6.628h2.216v-9.82h-3.31zM22.604 11.014v9.82h2.288l0.154-0.626c0.208 0.252 0.434 0.444 0.688 0.57 0.24 0.1 0.614 0.18 0.904 0.18 0.4 0 0.74-0.1 1.040-0.32 0.28-0.22 0.46-0.46 0.54-0.76 0.060-0.3 0.12-0.72 0.12-1.32v-2.738c0-0.588-0.020-0.976-0.060-1.16-0.040-0.18-0.1-0.368-0.24-0.56-0.14-0.188-0.34-0.332-0.58-0.44-0.26-0.1-0.54-0.154-0.88-0.154-0.3 0-0.66 0.060-0.92 0.17-0.26 0.12-0.48 0.3-0.68 0.534v-3.2h-2.4z"></path>
</svg>
</svg>
